<mxfile host="3744b9ca-3218-4edf-9e1e-895ea9f46256" modified="2020-08-11T21:17:17.663Z" agent="5.0 (Macintosh; Intel Mac OS X 10_15_6) AppleWebKit/537.36 (KHTML, like Gecko) Code/1.47.3 Chrome/78.0.3904.130 Electron/7.3.2 Safari/537.36" etag="CZ13popXbqWF6BGDsECv" version="13.1.3">
    <diagram id="6hGFLwfOUW9BJ-s0fimq" name="Page-1">
        <mxGraphModel dx="847" dy="659" grid="1" gridSize="10" guides="1" tooltips="1" connect="1" arrows="1" fold="1" page="1" pageScale="1" pageWidth="827" pageHeight="1169" math="0" shadow="0">
            <root>
                <mxCell id="0"/>
                <mxCell id="1" parent="0"/>
                <mxCell id="2" value="" style="rounded=0;whiteSpace=wrap;html=1;" parent="1" vertex="1">
                    <mxGeometry width="70" height="1160" as="geometry"/>
                </mxCell>
                <mxCell id="3" value="Tyler Dezern&lt;br&gt;&lt;br&gt;Developer&lt;br&gt;&lt;br&gt;" style="rounded=0;whiteSpace=wrap;html=1;" parent="1" vertex="1">
                    <mxGeometry x="70" width="290" height="1160" as="geometry"/>
                </mxCell>
                <mxCell id="19" value="MENU" style="rounded=0;whiteSpace=wrap;html=1;" vertex="1" parent="1">
                    <mxGeometry width="70" height="60" as="geometry"/>
                </mxCell>
                <mxCell id="21" value="" style="rounded=0;whiteSpace=wrap;html=1;" vertex="1" parent="1">
                    <mxGeometry y="280" width="70" height="70" as="geometry"/>
                </mxCell>
                <mxCell id="22" value="" style="rounded=0;whiteSpace=wrap;html=1;" vertex="1" parent="1">
                    <mxGeometry y="350" width="70" height="60" as="geometry"/>
                </mxCell>
                <mxCell id="27" value="" style="shape=actor;whiteSpace=wrap;html=1;" vertex="1" parent="1">
                    <mxGeometry x="15" y="292.5" width="40" height="45" as="geometry"/>
                </mxCell>
                <mxCell id="29" value="" style="shape=mxgraph.signs.tech.mail;html=1;pointerEvents=1;fillColor=#000000;strokeColor=none;verticalLabelPosition=bottom;verticalAlign=top;align=center;" vertex="1" parent="1">
                    <mxGeometry x="6.38" y="362.5" width="57.25" height="35" as="geometry"/>
                </mxCell>
                <mxCell id="31" value="Self Photo" style="rounded=0;whiteSpace=wrap;html=1;" vertex="1" parent="1">
                    <mxGeometry x="80" y="10" width="270" height="520" as="geometry"/>
                </mxCell>
                <mxCell id="32" value="" style="dashed=0;outlineConnect=0;html=1;align=center;labelPosition=center;verticalLabelPosition=bottom;verticalAlign=top;shape=mxgraph.webicons.github;gradientColor=#DFDEDE" vertex="1" parent="1">
                    <mxGeometry x="160" y="610" width="50" height="40" as="geometry"/>
                </mxCell>
                <mxCell id="33" value="" style="dashed=0;outlineConnect=0;html=1;align=center;labelPosition=center;verticalLabelPosition=bottom;verticalAlign=top;shape=mxgraph.webicons.linkedin;fillColor=#0095DB;gradientColor=#006391" vertex="1" parent="1">
                    <mxGeometry x="220" y="610" width="46.2" height="40" as="geometry"/>
                </mxCell>
                <mxCell id="36" value="" style="rounded=0;whiteSpace=wrap;html=1;" vertex="1" parent="1">
                    <mxGeometry x="360" width="450" height="1160" as="geometry"/>
                </mxCell>
                <mxCell id="37" value="&lt;span style=&quot;font-family: &amp;#34;helvetica&amp;#34; ; font-style: normal ; font-weight: 400 ; letter-spacing: normal ; text-align: center ; text-indent: 0px ; text-transform: none ; word-spacing: 0px ; background-color: rgb(42 , 42 , 42) ; float: none ; display: inline&quot;&gt;&lt;font color=&quot;#006600&quot; style=&quot;font-size: 14px&quot;&gt;5 years in IT / Libertarian / Jamstack&lt;/font&gt;&lt;/span&gt;" style="text;html=1;strokeColor=none;fillColor=none;align=center;verticalAlign=middle;whiteSpace=wrap;rounded=0;" vertex="1" parent="1">
                    <mxGeometry x="390" y="60" width="250" height="40" as="geometry"/>
                </mxCell>
                <mxCell id="38" value="&lt;font style=&quot;font-size: 28px&quot;&gt;About Me&lt;/font&gt;" style="text;html=1;strokeColor=none;fillColor=none;align=center;verticalAlign=middle;whiteSpace=wrap;rounded=0;" vertex="1" parent="1">
                    <mxGeometry x="390" y="10" width="140" height="50" as="geometry"/>
                </mxCell>
                <mxCell id="39" value="&lt;font color=&quot;#ffffff&quot; style=&quot;background-color: rgb(26 , 26 , 26)&quot;&gt;Elevator speech.......&lt;font style=&quot;font-size: 12px&quot;&gt;Lorem ipsum dolor sit amet, consectetur adipiscing elit, sed do eiusmod tempor incididunt ut labore et dolore magna aliqua. Ut enim ad minim veniam, quis nostrud exercitation ullamco laboris nisi ut aliquip ex ea commodo consequat. Duis aute irure dolor in reprehenderit in voluptate velit esse cillum dolore eu fugiat nulla pariatur. Excepteur sint occaecat cupidatat non proident, sunt in culpa qui officia deserunt mollit anim id est laborum.&lt;/font&gt;&lt;/font&gt;" style="text;html=1;strokeColor=none;fillColor=none;align=left;verticalAlign=middle;whiteSpace=wrap;rounded=0;perimeterSpacing=0;" vertex="1" parent="1">
                    <mxGeometry x="400" y="100" width="370" height="110" as="geometry"/>
                </mxCell>
                <mxCell id="43" value="&lt;font color=&quot;#006600&quot; face=&quot;helvetica&quot;&gt;&lt;span style=&quot;font-size: 14px&quot;&gt;Scuba Diving&lt;/span&gt;&lt;/font&gt;" style="text;html=1;strokeColor=none;fillColor=none;align=center;verticalAlign=middle;whiteSpace=wrap;rounded=0;" vertex="1" parent="1">
                    <mxGeometry x="400" y="280" width="100" height="40" as="geometry"/>
                </mxCell>
                <mxCell id="44" value="&lt;font style=&quot;font-size: 28px&quot;&gt;Things I Like&lt;/font&gt;" style="text;html=1;strokeColor=none;fillColor=none;align=center;verticalAlign=middle;whiteSpace=wrap;rounded=0;" vertex="1" parent="1">
                    <mxGeometry x="400" y="230" width="180" height="50" as="geometry"/>
                </mxCell>
                <mxCell id="45" value="&lt;font color=&quot;#006600&quot; face=&quot;helvetica&quot;&gt;&lt;span style=&quot;font-size: 14px&quot;&gt;Boating&lt;/span&gt;&lt;/font&gt;" style="text;html=1;strokeColor=none;fillColor=none;align=center;verticalAlign=middle;whiteSpace=wrap;rounded=0;" vertex="1" parent="1">
                    <mxGeometry x="530" y="280" width="100" height="40" as="geometry"/>
                </mxCell>
                <mxCell id="48" value="&lt;font color=&quot;#006600&quot; face=&quot;helvetica&quot;&gt;&lt;span style=&quot;font-size: 14px&quot;&gt;Trap Shooting&lt;/span&gt;&lt;/font&gt;" style="text;html=1;strokeColor=none;fillColor=none;align=center;verticalAlign=middle;whiteSpace=wrap;rounded=0;" vertex="1" parent="1">
                    <mxGeometry x="650" y="280" width="100" height="40" as="geometry"/>
                </mxCell>
                <mxCell id="49" value="Pic" style="rounded=0;whiteSpace=wrap;html=1;strokeColor=#000000;align=center;" vertex="1" parent="1">
                    <mxGeometry x="410" y="330" width="100" height="60" as="geometry"/>
                </mxCell>
                <mxCell id="50" value="Pic" style="rounded=0;whiteSpace=wrap;html=1;strokeColor=#000000;align=center;" vertex="1" parent="1">
                    <mxGeometry x="535" y="330" width="100" height="60" as="geometry"/>
                </mxCell>
                <mxCell id="51" value="Pic" style="rounded=0;whiteSpace=wrap;html=1;strokeColor=#000000;align=center;" vertex="1" parent="1">
                    <mxGeometry x="660" y="330" width="100" height="60" as="geometry"/>
                </mxCell>
                <mxCell id="52" value="&lt;span style=&quot;font-size: 28px&quot;&gt;Apps Built&lt;/span&gt;" style="text;html=1;strokeColor=none;fillColor=none;align=center;verticalAlign=middle;whiteSpace=wrap;rounded=0;" vertex="1" parent="1">
                    <mxGeometry x="410" y="420" width="140" height="50" as="geometry"/>
                </mxCell>
                <mxCell id="53" value="&lt;font color=&quot;#006600&quot; face=&quot;helvetica&quot;&gt;&lt;span style=&quot;font-size: 14px&quot;&gt;App Name&lt;/span&gt;&lt;/font&gt;" style="text;html=1;strokeColor=none;fillColor=none;align=center;verticalAlign=middle;whiteSpace=wrap;rounded=0;" vertex="1" parent="1">
                    <mxGeometry x="414" y="470" width="100" height="40" as="geometry"/>
                </mxCell>
                <mxCell id="54" value="&lt;font color=&quot;#006600&quot; face=&quot;helvetica&quot;&gt;&lt;span style=&quot;font-size: 14px&quot;&gt;App Name&lt;/span&gt;&lt;/font&gt;" style="text;html=1;strokeColor=none;fillColor=none;align=center;verticalAlign=middle;whiteSpace=wrap;rounded=0;" vertex="1" parent="1">
                    <mxGeometry x="535" y="470" width="100" height="40" as="geometry"/>
                </mxCell>
                <mxCell id="55" value="&lt;font color=&quot;#006600&quot; face=&quot;helvetica&quot;&gt;&lt;span style=&quot;font-size: 14px&quot;&gt;App Name&lt;/span&gt;&lt;/font&gt;" style="text;html=1;strokeColor=none;fillColor=none;align=center;verticalAlign=middle;whiteSpace=wrap;rounded=0;" vertex="1" parent="1">
                    <mxGeometry x="660" y="470" width="100" height="40" as="geometry"/>
                </mxCell>
                <mxCell id="56" value="App Video" style="rounded=0;whiteSpace=wrap;html=1;strokeColor=#000000;align=center;" vertex="1" parent="1">
                    <mxGeometry x="420" y="525" width="100" height="60" as="geometry"/>
                </mxCell>
                <mxCell id="57" value="App Video" style="rounded=0;whiteSpace=wrap;html=1;strokeColor=#000000;align=center;" vertex="1" parent="1">
                    <mxGeometry x="540" y="525" width="100" height="60" as="geometry"/>
                </mxCell>
                <mxCell id="58" value="App Video" style="rounded=0;whiteSpace=wrap;html=1;strokeColor=#000000;align=center;" vertex="1" parent="1">
                    <mxGeometry x="660" y="525" width="100" height="60" as="geometry"/>
                </mxCell>
            </root>
        </mxGraphModel>
    </diagram>
</mxfile>